####
#
# OBJ File Generated by Meshlab
#
####
# Object x2_collision_box_023_017_010.obj
#
# Vertices: 8
# Faces: 12
#
####
vn -1.5707963267948966 -1.5707963267948966 -1.5707963267948966
v -0.0230000000000000 -0.0170000000000000 -0.0100000000000000 1.000000 1.000000 1.000000
vn 1.5707963267948966 -1.5707963267948966 -1.5707963267948966
v 0.0230000000000000 -0.0170000000000000 -0.0100000000000000 1.000000 1.000000 1.000000
vn 1.5707963267948966 1.5707963267948966 -1.5707963267948966
v 0.0230000000000000 0.0170000000000000 -0.0100000000000000 1.000000 1.000000 1.000000
vn -1.5707963267948966 1.5707963267948966 -1.5707963267948966
v -0.0230000000000000 0.0170000000000000 -0.0100000000000000 1.000000 1.000000 1.000000
vn -1.5707963267948966 -1.5707963267948966 1.5707963267948966
v -0.0230000000000000 -0.0170000000000000 0.0100000000000000 1.000000 1.000000 1.000000
vn 1.5707963267948966 -1.5707963267948966 1.5707963267948966
v 0.0230000000000000 -0.0170000000000000 0.0100000000000000 1.000000 1.000000 1.000000
vn 1.5707963267948966 1.5707963267948966 1.5707963267948966
v 0.0230000000000000 0.0170000000000000 0.0100000000000000 1.000000 1.000000 1.000000
vn -1.5707963267948966 1.5707963267948966 1.5707963267948966
v -0.0230000000000000 0.0170000000000000 0.0100000000000000 1.000000 1.000000 1.000000
# 8 vertices, 0 vertices normals

f 1//1 3//3 2//2
f 1//1 4//4 3//3
f 5//5 6//6 7//7
f 5//5 7//7 8//8
f 1//1 2//2 6//6
f 1//1 6//6 5//5
f 2//2 3//3 7//7
f 2//2 7//7 6//6
f 4//4 7//7 3//3
f 4//4 8//8 7//7
f 1//1 5//5 8//8
f 1//1 8//8 4//4
# 12 faces, 0 coords texture

# End of File
