####
#
# OBJ File Generated by Meshlab
#
####
# Object x2_rotor_cyl_013_010.obj
#
# Vertices: 26
# Faces: 48
#
####
vn 3.0345454797823881 -0.0000000000000004 -2.6179938779914944
v 0.1300000000000000 0.0000000000000000 -0.0100000000000000 1.000000 1.000000 1.000000
vn 2.6279934744307862 1.5172727398911938 -2.6179938779914944
v 0.1125833024919770 0.0650000000000000 -0.0100000000000000 1.000000 1.000000 1.000000
vn 1.5172727398911938 2.6279934744307853 -2.6179938779914940
v 0.0650000000000000 0.1125833024919770 -0.0100000000000000 1.000000 1.000000 1.000000
vn 0.0000000000000000 3.0345454797823876 -2.6179938779914944
v 0.0000000000000000 0.1300000000000000 -0.0100000000000000 1.000000 1.000000 1.000000
vn -1.5172727398911934 2.6279934744307858 -2.6179938779914944
v -0.0650000000000000 0.1125833024919770 -0.0100000000000000 1.000000 1.000000 1.000000
vn -2.6279934744307862 1.5172727398911940 -2.6179938779914944
v -0.1125833024919770 0.0650000000000000 -0.0100000000000000 1.000000 1.000000 1.000000
vn -3.0345454797823876 0.0000000000000004 -2.6179938779914949
v -0.1300000000000000 0.0000000000000000 -0.0100000000000000 1.000000 1.000000 1.000000
vn -2.6279934744307858 -1.5172727398911925 -2.6179938779914949
v -0.1125833024919771 -0.0650000000000000 -0.0100000000000000 1.000000 1.000000 1.000000
vn -1.5172727398911947 -2.6279934744307845 -2.6179938779914940
v -0.0650000000000001 -0.1125833024919770 -0.0100000000000000 1.000000 1.000000 1.000000
vn -0.0000000000000008 -3.0345454797823868 -2.6179938779914940
v -0.0000000000000000 -0.1300000000000000 -0.0100000000000000 1.000000 1.000000 1.000000
vn 1.5172727398911932 -2.6279934744307853 -2.6179938779914944
v 0.0650000000000000 -0.1125833024919770 -0.0100000000000000 1.000000 1.000000 1.000000
vn 2.6279934744307849 -1.5172727398911940 -2.6179938779914944
v 0.1125833024919770 -0.0650000000000001 -0.0100000000000000 1.000000 1.000000 1.000000
vn 3.0345454797823876 -0.0000000000000005 2.6179938779914944
v 0.1300000000000000 0.0000000000000000 0.0100000000000000 1.000000 1.000000 1.000000
vn 2.6279934744307862 1.5172727398911938 2.6179938779914944
v 0.1125833024919770 0.0650000000000000 0.0100000000000000 1.000000 1.000000 1.000000
vn 1.5172727398911945 2.6279934744307853 2.6179938779914940
v 0.0650000000000000 0.1125833024919770 0.0100000000000000 1.000000 1.000000 1.000000
vn 0.0000000000000001 3.0345454797823876 2.6179938779914944
v 0.0000000000000000 0.1300000000000000 0.0100000000000000 1.000000 1.000000 1.000000
vn -1.5172727398911936 2.6279934744307858 2.6179938779914944
v -0.0650000000000000 0.1125833024919770 0.0100000000000000 1.000000 1.000000 1.000000
vn -2.6279934744307853 1.5172727398911940 2.6179938779914944
v -0.1125833024919770 0.0650000000000000 0.0100000000000000 1.000000 1.000000 1.000000
vn -3.0345454797823894 0.0000000000000006 2.6179938779914949
v -0.1300000000000000 0.0000000000000000 0.0100000000000000 1.000000 1.000000 1.000000
vn -2.6279934744307853 -1.5172727398911927 2.6179938779914949
v -0.1125833024919771 -0.0650000000000000 0.0100000000000000 1.000000 1.000000 1.000000
vn -1.5172727398911945 -2.6279934744307840 2.6179938779914940
v -0.0650000000000001 -0.1125833024919770 0.0100000000000000 1.000000 1.000000 1.000000
vn -0.0000000000000008 -3.0345454797823876 2.6179938779914940
v -0.0000000000000000 -0.1300000000000000 0.0100000000000000 1.000000 1.000000 1.000000
vn 1.5172727398911934 -2.6279934744307853 2.6179938779914944
v 0.0650000000000000 -0.1125833024919770 0.0100000000000000 1.000000 1.000000 1.000000
vn 2.6279934744307849 -1.5172727398911943 2.6179938779914944
v 0.1125833024919770 -0.0650000000000001 0.0100000000000000 1.000000 1.000000 1.000000
vn 0.0000000000000000 0.0000000000000000 -6.2831853071795862
v 0.0000000000000000 0.0000000000000000 -0.0100000000000000 1.000000 1.000000 1.000000
vn 0.0000000000000000 0.0000000000000000 6.2831853071795862
v 0.0000000000000000 0.0000000000000000 0.0100000000000000 1.000000 1.000000 1.000000
# 26 vertices, 0 vertices normals

f 1//1 2//2 14//14
f 1//1 14//14 13//13
f 26//26 13//13 14//14
f 25//25 2//2 1//1
f 2//2 3//3 15//15
f 2//2 15//15 14//14
f 26//26 14//14 15//15
f 25//25 3//3 2//2
f 3//3 4//4 16//16
f 3//3 16//16 15//15
f 26//26 15//15 16//16
f 25//25 4//4 3//3
f 4//4 5//5 17//17
f 4//4 17//17 16//16
f 26//26 16//16 17//17
f 25//25 5//5 4//4
f 5//5 6//6 18//18
f 5//5 18//18 17//17
f 26//26 17//17 18//18
f 25//25 6//6 5//5
f 6//6 7//7 19//19
f 6//6 19//19 18//18
f 26//26 18//18 19//19
f 25//25 7//7 6//6
f 7//7 8//8 20//20
f 7//7 20//20 19//19
f 26//26 19//19 20//20
f 25//25 8//8 7//7
f 8//8 9//9 21//21
f 8//8 21//21 20//20
f 26//26 20//20 21//21
f 25//25 9//9 8//8
f 9//9 10//10 22//22
f 9//9 22//22 21//21
f 26//26 21//21 22//22
f 25//25 10//10 9//9
f 10//10 11//11 23//23
f 10//10 23//23 22//22
f 26//26 22//22 23//23
f 25//25 11//11 10//10
f 11//11 12//12 24//24
f 11//11 24//24 23//23
f 26//26 23//23 24//24
f 25//25 12//12 11//11
f 12//12 1//1 13//13
f 12//12 13//13 24//24
f 26//26 24//24 13//13
f 25//25 1//1 12//12
# 48 faces, 0 coords texture

# End of File
